<svg width="22" height="24" viewBox="0 0 22 24" fill="none" xmlns="http://www.w3.org/2000/svg">
<path d="M11.0029 1.50098C11.9975 1.50098 12.9513 1.89606 13.6546 2.59933C14.3578 3.30259 14.7529 4.25641 14.7529 5.25098V6.00098H7.25293V5.25098C7.25293 4.25641 7.64802 3.30259 8.35128 2.59933C9.05454 1.89606 10.0084 1.50098 11.0029 1.50098ZM16.2529 6.00098V5.25098C16.2529 3.85859 15.6998 2.52323 14.7152 1.53867C13.7307 0.5541 12.3953 0.000976563 11.0029 0.000976562C9.61054 0.000976563 8.27519 0.5541 7.29062 1.53867C6.30605 2.52323 5.75293 3.85859 5.75293 5.25098V6.00098H0.50293V21.001C0.50293 21.7966 0.819 22.5597 1.38161 23.1223C1.94422 23.6849 2.70728 24.001 3.50293 24.001H18.5029C19.2986 24.001 20.0616 23.6849 20.6242 23.1223C21.1869 22.5597 21.5029 21.7966 21.5029 21.001V6.00098H16.2529ZM2.00293 7.50098H20.0029V21.001C20.0029 21.3988 19.8449 21.7803 19.5636 22.0616C19.2823 22.3429 18.9008 22.501 18.5029 22.501H3.50293C3.1051 22.501 2.72357 22.3429 2.44227 22.0616C2.16096 21.7803 2.00293 21.3988 2.00293 21.001V7.50098Z" fill="#292929"/>
</svg>
