<svg width="24" height="24" viewBox="0 0 24 24" fill="none" xmlns="http://www.w3.org/2000/svg">
<path d="M24.0029 12.001C24.0029 15.1836 22.7386 18.2358 20.4882 20.4863C18.2378 22.7367 15.1855 24.001 12.0029 24.001C8.82033 24.001 5.76809 22.7367 3.51765 20.4863C1.26721 18.2358 0.00292969 15.1836 0.00292969 12.001C0.00292969 8.81838 1.26721 5.76613 3.51765 3.5157C5.76809 1.26526 8.82033 0.000976563 12.0029 0.000976562C15.1855 0.000976563 18.2378 1.26526 20.4882 3.5157C22.7386 5.76613 24.0029 8.81838 24.0029 12.001ZM8.03393 6.96998C7.8931 6.82915 7.70209 6.75003 7.50293 6.75003C7.30377 6.75003 7.11276 6.82915 6.97193 6.96998C6.8311 7.11081 6.75198 7.30181 6.75198 7.50098C6.75198 7.70014 6.8311 7.89115 6.97193 8.03198L10.9424 12.001L6.97193 15.97C6.9022 16.0397 6.84688 16.1225 6.80914 16.2136C6.77141 16.3047 6.75198 16.4024 6.75198 16.501C6.75198 16.5996 6.77141 16.6972 6.80914 16.7884C6.84688 16.8795 6.9022 16.9622 6.97193 17.032C7.11276 17.1728 7.30377 17.2519 7.50293 17.2519C7.60155 17.2519 7.6992 17.2325 7.79031 17.1948C7.88141 17.157 7.9642 17.1017 8.03393 17.032L12.0029 13.0615L15.9719 17.032C16.0417 17.1017 16.1244 17.157 16.2156 17.1948C16.3067 17.2325 16.4043 17.2519 16.5029 17.2519C16.6015 17.2519 16.6992 17.2325 16.7903 17.1948C16.8814 17.157 16.9642 17.1017 17.0339 17.032C17.1037 16.9622 17.159 16.8795 17.1967 16.7884C17.2345 16.6972 17.2539 16.5996 17.2539 16.501C17.2539 16.4024 17.2345 16.3047 17.1967 16.2136C17.159 16.1225 17.1037 16.0397 17.0339 15.97L13.0634 12.001L17.0339 8.03198C17.1037 7.96224 17.159 7.87946 17.1967 7.78835C17.2345 7.69724 17.2539 7.59959 17.2539 7.50098C17.2539 7.40236 17.2345 7.30471 17.1967 7.2136C17.159 7.12249 17.1037 7.03971 17.0339 6.96998C16.9642 6.90024 16.8814 6.84493 16.7903 6.80719C16.6992 6.76945 16.6015 6.75003 16.5029 6.75003C16.4043 6.75003 16.3067 6.76945 16.2156 6.80719C16.1244 6.84493 16.0417 6.90024 15.9719 6.96998L12.0029 10.9405L8.03393 6.96998Z" fill="#7C7C7C"/>
</svg>
