<svg width="10" height="10" viewBox="0 0 10 10" fill="none" xmlns="http://www.w3.org/2000/svg">
<path fill-rule="evenodd" clip-rule="evenodd" d="M5.00195 0.5C5.10141 0.5 5.19679 0.539509 5.26712 0.609835C5.33744 0.680161 5.37695 0.775544 5.37695 0.875V4.625H9.12695C9.22641 4.625 9.32179 4.66451 9.39212 4.73484C9.46244 4.80516 9.50195 4.90054 9.50195 5C9.50195 5.09946 9.46244 5.19484 9.39212 5.26517C9.32179 5.33549 9.22641 5.375 9.12695 5.375H5.37695V9.125C5.37695 9.22446 5.33744 9.31984 5.26712 9.39017C5.19679 9.46049 5.10141 9.5 5.00195 9.5C4.9025 9.5 4.80711 9.46049 4.73679 9.39017C4.66646 9.31984 4.62695 9.22446 4.62695 9.125V5.375H0.876953C0.777497 5.375 0.682114 5.33549 0.611788 5.26517C0.541462 5.19484 0.501953 5.09946 0.501953 5C0.501953 4.90054 0.541462 4.80516 0.611788 4.73484C0.682114 4.66451 0.777497 4.625 0.876953 4.625H4.62695V0.875C4.62695 0.775544 4.66646 0.680161 4.73679 0.609835C4.80711 0.539509 4.9025 0.5 5.00195 0.5Z" fill="#525252"/>
</svg>
