<svg width="24" height="24" viewBox="0 0 24 24" fill="none" xmlns="http://www.w3.org/2000/svg">
<path fill-rule="evenodd" clip-rule="evenodd" d="M0.00292969 5.25111C0.00292969 5.05219 0.0819473 4.86143 0.2226 4.72078C0.363252 4.58012 0.554017 4.50111 0.75293 4.50111H1.50293C4.80593 4.50111 7.24343 6.36111 8.81393 8.12811C9.54893 8.95611 10.1114 9.78111 10.5029 10.4261C10.8929 9.78111 11.4569 8.95611 12.1919 8.12811C13.7624 6.36111 16.1999 4.50111 19.5029 4.50111V6.00111C16.8059 6.00111 14.7434 7.51611 13.3139 9.12411C12.541 9.99961 11.8771 10.9657 11.3369 12.0011C11.8767 13.0365 12.54 14.0025 13.3124 14.8781C14.7449 16.4861 16.8089 18.0011 19.5029 18.0011V19.5011C16.1999 19.5011 13.7624 17.6411 12.1919 15.8741C11.5612 15.1603 10.9959 14.3912 10.5029 13.5761C10.1129 14.2211 9.54893 15.0461 8.81393 15.8741C7.24343 17.6411 4.80593 19.5011 1.50293 19.5011H0.75293C0.554017 19.5011 0.363252 19.4221 0.2226 19.2814C0.0819473 19.1408 0.00292969 18.95 0.00292969 18.7511C0.00292969 18.5522 0.0819473 18.3614 0.2226 18.2208C0.363252 18.0801 0.554017 18.0011 0.75293 18.0011H1.50293C4.19993 18.0011 6.26243 16.4861 7.69193 14.8781C8.46488 14.0026 9.12873 13.0365 9.66893 12.0011C9.1292 10.9657 8.46585 9.99969 7.69343 9.12411C6.26093 7.51611 4.19693 6.00111 1.50293 6.00111H0.75293C0.554017 6.00111 0.363252 5.92209 0.2226 5.78144C0.0819473 5.64078 0.00292969 5.45002 0.00292969 5.25111Z" fill="#A2A2A2"/>
<path d="M19.5029 8.20011V2.30211C19.503 2.23085 19.5233 2.16108 19.5615 2.10096C19.5998 2.04084 19.6544 1.99286 19.7189 1.96264C19.7834 1.93242 19.8552 1.92121 19.9259 1.93033C19.9966 1.93944 20.0632 1.9685 20.1179 2.01411L23.6579 4.96311C23.8379 5.11311 23.8379 5.38911 23.6579 5.53911L20.1179 8.48811C20.0632 8.53371 19.9966 8.56277 19.9259 8.57188C19.8552 8.581 19.7834 8.56979 19.7189 8.53957C19.6544 8.50935 19.5998 8.46137 19.5615 8.40125C19.5233 8.34113 19.503 8.27136 19.5029 8.20011ZM19.5029 21.7001V15.8021C19.503 15.7309 19.5233 15.6611 19.5615 15.601C19.5998 15.5408 19.6544 15.4929 19.7189 15.4626C19.7834 15.4324 19.8552 15.4212 19.9259 15.4303C19.9966 15.4394 20.0632 15.4685 20.1179 15.5141L23.6579 18.4631C23.8379 18.6131 23.8379 18.8891 23.6579 19.0391L20.1179 21.9881C20.0632 22.0337 19.9966 22.0628 19.9259 22.0719C19.8552 22.081 19.7834 22.0698 19.7189 22.0396C19.6544 22.0094 19.5998 21.9614 19.5615 21.9013C19.5233 21.8411 19.503 21.7714 19.5029 21.7001Z" fill="#A2A2A2"/>
</svg>
