<svg width="16" height="17" viewBox="0 0 16 17" fill="none" xmlns="http://www.w3.org/2000/svg">
<path fill-rule="evenodd" clip-rule="evenodd" d="M11.3333 14.5003L10.902 15.009L10.9013 15.0077L10.8987 15.0063L10.892 14.9997L10.866 14.9777L10.7747 14.897C10.319 14.4885 9.89075 14.0504 9.49267 13.5857C9.14267 13.1743 8.778 12.6903 8.49867 12.1797C8.22333 11.6777 8 11.095 8 10.5003C8 9.46899 8.35867 8.61699 8.99333 8.02633C9.62067 7.44233 10.46 7.16699 11.3333 7.16699C12.2067 7.16699 13.046 7.44233 13.6733 8.02633C14.308 8.61699 14.6667 9.46899 14.6667 10.5003C14.6667 11.095 14.4433 11.6777 14.168 12.1803C13.888 12.6903 13.5247 13.1743 13.1747 13.5857C12.7498 14.0813 12.2907 14.5464 11.8007 14.9777L11.7753 14.9997L11.768 15.0063L11.7653 15.0077L11.7647 15.0083L11.3333 14.5003ZM11.3333 14.5003L11.764 15.009C11.6436 15.1109 11.491 15.1668 11.3333 15.1668C11.1756 15.1668 11.0224 15.1109 10.902 15.009L11.3333 14.5003ZM11.3333 11.167C11.5101 11.167 11.6797 11.0968 11.8047 10.9717C11.9298 10.8467 12 10.6771 12 10.5003C12 10.3235 11.9298 10.1539 11.8047 10.0289C11.6797 9.9039 11.5101 9.83366 11.3333 9.83366C11.1565 9.83366 10.987 9.9039 10.8619 10.0289C10.7369 10.1539 10.6667 10.3235 10.6667 10.5003C10.6667 10.6771 10.7369 10.8467 10.8619 10.9717C10.987 11.0968 11.1565 11.167 11.3333 11.167Z" fill="#FF6B00"/>
<path fill-rule="evenodd" clip-rule="evenodd" d="M14.6668 3.16677C14.6668 3.04607 14.6341 2.92764 14.5721 2.82409C14.5101 2.72055 14.4211 2.63579 14.3147 2.57885C14.2083 2.52191 14.0884 2.49493 13.9678 2.50079C13.8473 2.50664 13.7306 2.54511 13.6302 2.6121L10.0002 5.0321L6.37016 2.6121C6.26061 2.53901 6.13186 2.5 6.00016 2.5C5.86846 2.5 5.73972 2.53901 5.63016 2.6121L1.63016 5.27877C1.53889 5.33967 1.46405 5.42215 1.4123 5.51891C1.36055 5.61567 1.33348 5.72371 1.3335 5.83343V13.8334C1.33348 13.9541 1.36623 14.0726 1.42825 14.1761C1.49027 14.2796 1.57923 14.3644 1.68565 14.4214C1.79207 14.4783 1.91195 14.5053 2.03251 14.4994C2.15306 14.4936 2.26976 14.4551 2.37016 14.3881L6.00016 11.9681L6.50016 12.3014C6.33083 11.8301 6.22216 11.3348 6.22216 10.8334C6.22216 9.28677 6.77216 8.0081 7.7455 7.1221C8.7075 6.24677 9.99416 5.83343 11.3335 5.83343C12.5582 5.83343 13.7388 6.17877 14.6668 6.90677V3.16677Z" fill="#FF6B00"/>
</svg>
