<svg width="24" height="24" viewBox="0 0 24 24" fill="none" xmlns="http://www.w3.org/2000/svg">
<g clip-path="url(#clip0_3104_5848)">
<path d="M1.50293 3.75122C1.50293 3.15448 1.73998 2.58219 2.16194 2.16023C2.5839 1.73827 3.15619 1.50122 3.75293 1.50122H8.25293C8.84967 1.50122 9.42196 1.73827 9.84392 2.16023C10.2659 2.58219 10.5029 3.15448 10.5029 3.75122V8.25122C10.5029 8.84796 10.2659 9.42025 9.84392 9.84221C9.42196 10.2642 8.84967 10.5012 8.25293 10.5012H3.75293C3.15619 10.5012 2.5839 10.2642 2.16194 9.84221C1.73998 9.42025 1.50293 8.84796 1.50293 8.25122V3.75122ZM13.5029 3.75122C13.5029 3.15448 13.74 2.58219 14.1619 2.16023C14.5839 1.73827 15.1562 1.50122 15.7529 1.50122H20.2529C20.8497 1.50122 21.422 1.73827 21.8439 2.16023C22.2659 2.58219 22.5029 3.15448 22.5029 3.75122V8.25122C22.5029 8.84796 22.2659 9.42025 21.8439 9.84221C21.422 10.2642 20.8497 10.5012 20.2529 10.5012H15.7529C15.1562 10.5012 14.5839 10.2642 14.1619 9.84221C13.74 9.42025 13.5029 8.84796 13.5029 8.25122V3.75122ZM1.50293 15.7512C1.50293 15.1545 1.73998 14.5822 2.16194 14.1602C2.5839 13.7383 3.15619 13.5012 3.75293 13.5012H8.25293C8.84967 13.5012 9.42196 13.7383 9.84392 14.1602C10.2659 14.5822 10.5029 15.1545 10.5029 15.7512V20.2512C10.5029 20.848 10.2659 21.4203 9.84392 21.8422C9.42196 22.2642 8.84967 22.5012 8.25293 22.5012H3.75293C3.15619 22.5012 2.5839 22.2642 2.16194 21.8422C1.73998 21.4203 1.50293 20.848 1.50293 20.2512V15.7512ZM13.5029 15.7512C13.5029 15.1545 13.74 14.5822 14.1619 14.1602C14.5839 13.7383 15.1562 13.5012 15.7529 13.5012H20.2529C20.8497 13.5012 21.422 13.7383 21.8439 14.1602C22.2659 14.5822 22.5029 15.1545 22.5029 15.7512V20.2512C22.5029 20.848 22.2659 21.4203 21.8439 21.8422C21.422 22.2642 20.8497 22.5012 20.2529 22.5012H15.7529C15.1562 22.5012 14.5839 22.2642 14.1619 21.8422C13.74 21.4203 13.5029 20.848 13.5029 20.2512V15.7512Z" fill="#A2A2A2"/>
</g>
<defs>
<clipPath id="clip0_3104_5848">
<rect width="24" height="24" fill="white"/>
</clipPath>
</defs>
</svg>
