<svg width="16" height="16" viewBox="0 0 16 16" fill="none" xmlns="http://www.w3.org/2000/svg">
<path fill-rule="evenodd" clip-rule="evenodd" d="M14.3543 9.35482C14.3079 9.40138 14.2527 9.43832 14.192 9.46353C14.1312 9.48873 14.0661 9.50171 14.0003 9.50171C13.9346 9.50171 13.8694 9.48873 13.8087 9.46353C13.7479 9.43832 13.6928 9.40138 13.6463 9.35482L8.00033 3.70782L2.35433 9.35482C2.26044 9.4487 2.1331 9.50145 2.00033 9.50145C1.86755 9.50145 1.74021 9.4487 1.64633 9.35482C1.55244 9.26093 1.4997 9.13359 1.4997 9.00082C1.4997 8.86804 1.55244 8.7407 1.64633 8.64682L7.64633 2.64682C7.69277 2.60025 7.74795 2.56331 7.80869 2.5381C7.86944 2.5129 7.93456 2.49992 8.00033 2.49992C8.06609 2.49992 8.13122 2.5129 8.19196 2.5381C8.25271 2.56331 8.30788 2.60025 8.35433 2.64682L14.3543 8.64682C14.4009 8.69326 14.4378 8.74844 14.463 8.80918C14.4882 8.86993 14.5012 8.93505 14.5012 9.00082C14.5012 9.06658 14.4882 9.1317 14.463 9.19245C14.4378 9.25319 14.4009 9.30837 14.3543 9.35482Z" fill="#3D3D3D"/>
<path fill-rule="evenodd" clip-rule="evenodd" d="M14.3543 13.3548C14.3079 13.4014 14.2527 13.4383 14.192 13.4635C14.1312 13.4887 14.0661 13.5017 14.0003 13.5017C13.9346 13.5017 13.8694 13.4887 13.8087 13.4635C13.7479 13.4383 13.6928 13.4014 13.6463 13.3548L8.00033 7.70782L2.35433 13.3548C2.30784 13.4013 2.25265 13.4382 2.19191 13.4633C2.13117 13.4885 2.06607 13.5014 2.00033 13.5014C1.93458 13.5014 1.86948 13.4885 1.80874 13.4633C1.748 13.4382 1.69281 13.4013 1.64633 13.3548C1.59984 13.3083 1.56296 13.2531 1.5378 13.1924C1.51264 13.1317 1.4997 13.0666 1.4997 13.0008C1.4997 12.9351 1.51264 12.87 1.5378 12.8092C1.56296 12.7485 1.59984 12.6933 1.64633 12.6468L7.64633 6.64682C7.69277 6.60025 7.74795 6.56331 7.80869 6.5381C7.86944 6.5129 7.93456 6.49992 8.00033 6.49992C8.06609 6.49992 8.13122 6.5129 8.19196 6.5381C8.25271 6.56331 8.30788 6.60025 8.35433 6.64682L14.3543 12.6468C14.4009 12.6933 14.4378 12.7484 14.463 12.8092C14.4882 12.8699 14.5012 12.935 14.5012 13.0008C14.5012 13.0666 14.4882 13.1317 14.463 13.1924C14.4378 13.2532 14.4009 13.3084 14.3543 13.3548Z" fill="#3D3D3D"/>
</svg>
