<svg width="16" height="16" viewBox="0 0 16 16" fill="none" xmlns="http://www.w3.org/2000/svg">
<g clip-path="url(#clip0_1_7000)">
<path fill-rule="evenodd" clip-rule="evenodd" d="M6.77554 1.55219C6.89409 1.49278 7.03139 1.4829 7.15722 1.52472C7.28306 1.56654 7.38713 1.65664 7.44654 1.77519L10.4465 7.77519C10.4814 7.84472 10.4995 7.92142 10.4995 7.99919C10.4995 8.07696 10.4814 8.15366 10.4465 8.22319L7.44654 14.2232C7.41743 14.2824 7.37689 14.3353 7.32726 14.3788C7.27762 14.4222 7.21987 14.4555 7.15733 14.4765C7.09479 14.4976 7.0287 14.506 6.96288 14.5014C6.89705 14.4968 6.83279 14.4792 6.7738 14.4497C6.7148 14.4201 6.66224 14.3792 6.61915 14.3292C6.57606 14.2792 6.54328 14.2212 6.52271 14.1585C6.50214 14.0958 6.49419 14.0296 6.49931 13.9639C6.50443 13.8981 6.52252 13.834 6.55254 13.7752L9.43954 7.99919L6.55254 2.22319C6.49313 2.10463 6.48325 1.96734 6.52507 1.8415C6.5669 1.71567 6.65699 1.6116 6.77554 1.55219Z" fill="white"/>
</g>
<defs>
<clipPath id="clip0_1_7000">
<rect width="16" height="16" fill="white"/>
</clipPath>
</defs>
</svg>
