<svg width="16" height="16" viewBox="0 0 16 16" fill="none" xmlns="http://www.w3.org/2000/svg">
<g clip-path="url(#clip0_1_6998)">
<path fill-rule="evenodd" clip-rule="evenodd" d="M9.22359 1.55215C9.34188 1.61157 9.43178 1.71546 9.47359 1.84106C9.51539 1.96665 9.50568 2.1037 9.44659 2.22215L6.55959 7.99915L9.44759 13.7752C9.47761 13.8339 9.4957 13.898 9.50082 13.9638C9.50594 14.0296 9.49799 14.0958 9.47742 14.1585C9.45685 14.2212 9.42407 14.2792 9.38098 14.3291C9.33789 14.3791 9.28533 14.4201 9.22634 14.4496C9.16734 14.4792 9.10308 14.4968 9.03725 14.5014C8.97143 14.506 8.90534 14.4975 8.8428 14.4765C8.78026 14.4554 8.72251 14.4222 8.67288 14.3787C8.62324 14.3352 8.5827 14.2824 8.55359 14.2232L5.55359 8.22315C5.51875 8.15362 5.50061 8.07692 5.50061 7.99915C5.50061 7.92138 5.51875 7.84468 5.55359 7.77515L8.55359 1.77515C8.61301 1.65687 8.7169 1.56696 8.8425 1.52516C8.9681 1.48336 9.10514 1.49306 9.22359 1.55215Z" fill="white"/>
</g>
<defs>
<clipPath id="clip0_1_6998">
<rect width="16" height="16" fill="white"/>
</clipPath>
</defs>
</svg>
