<svg xmlns="http://www.w3.org/2000/svg" width="16" height="17" viewBox="0 0 16 17" fill="none">
<g clip-path="url(#clip0_3104_4042)">
<path d="M7.24664 11.639L2.45064 6.15702C1.88464 5.51202 2.34464 4.49902 3.20364 4.49902H12.7956C12.9879 4.49886 13.1761 4.55411 13.3378 4.65816C13.4994 4.76222 13.6276 4.91066 13.7071 5.08572C13.7866 5.26077 13.8139 5.45502 13.7858 5.6452C13.7577 5.83538 13.6753 6.01343 13.5486 6.15802L8.75265 11.638C8.65878 11.7454 8.54303 11.8315 8.41315 11.8905C8.28328 11.9495 8.14229 11.98 7.99964 11.98C7.857 11.98 7.71601 11.9495 7.58614 11.8905C7.45626 11.8315 7.34051 11.7454 7.24664 11.638V11.639Z" fill="#e31844"/>
</g>
<defs fill="#000000">
<clipPath id="clip0_3104_4042" fill="#000000">
<rect width="16" height="16" fill="white" transform="translate(0 0.5)"/>
</clipPath>
</defs>
</svg>