<svg width="24" height="24" viewBox="0 0 24 24" fill="none" xmlns="http://www.w3.org/2000/svg">
<g clip-path="url(#clip0_3104_885)">
<path d="M4.50293 21.0012C4.50293 21.0012 3.00293 21.0012 3.00293 19.5012C3.00293 18.0012 4.50293 13.5012 12.0029 13.5012C19.5029 13.5012 21.0029 18.0012 21.0029 19.5012C21.0029 21.0012 19.5029 21.0012 19.5029 21.0012H4.50293ZM12.0029 12.0012C13.1964 12.0012 14.341 11.5271 15.1849 10.6832C16.0288 9.83929 16.5029 8.69469 16.5029 7.50122C16.5029 6.30775 16.0288 5.16315 15.1849 4.31924C14.341 3.47533 13.1964 3.00122 12.0029 3.00122C10.8095 3.00122 9.66486 3.47533 8.82095 4.31924C7.97704 5.16315 7.50293 6.30775 7.50293 7.50122C7.50293 8.69469 7.97704 9.83929 8.82095 10.6832C9.66486 11.5271 10.8095 12.0012 12.0029 12.0012Z" fill="#A2A2A2"/>
</g>
<defs>
<clipPath id="clip0_3104_885">
<rect width="24" height="24" fill="white"/>
</clipPath>
</defs>
</svg>
