<svg width="24" height="24" viewBox="0 0 24 24" fill="none" xmlns="http://www.w3.org/2000/svg">
<g clip-path="url(#clip0_3104_902)">
<path fill-rule="evenodd" clip-rule="evenodd" d="M15.0029 18.751C15.0029 18.9499 14.9239 19.1407 14.7833 19.2813C14.6426 19.422 14.4518 19.501 14.2529 19.501H2.25293C2.05402 19.501 1.86325 19.422 1.7226 19.2813C1.58195 19.1407 1.50293 18.9499 1.50293 18.751V5.25098C1.50293 5.05206 1.58195 4.8613 1.7226 4.72065C1.86325 4.57999 2.05402 4.50098 2.25293 4.50098H14.2529C14.4518 4.50098 14.6426 4.57999 14.7833 4.72065C14.9239 4.8613 15.0029 5.05206 15.0029 5.25098V8.25098C15.0029 8.44989 15.0819 8.64065 15.2226 8.78131C15.3633 8.92196 15.554 9.00098 15.7529 9.00098C15.9518 9.00098 16.1426 8.92196 16.2833 8.78131C16.4239 8.64065 16.5029 8.44989 16.5029 8.25098V5.25098C16.5029 4.65424 16.2659 4.08194 15.8439 3.65999C15.422 3.23803 14.8497 3.00098 14.2529 3.00098H2.25293C1.65619 3.00098 1.0839 3.23803 0.661939 3.65999C0.239983 4.08194 0.00292969 4.65424 0.00292969 5.25098V18.751C0.00292969 19.3477 0.239983 19.92 0.661939 20.342C1.0839 20.7639 1.65619 21.001 2.25293 21.001H14.2529C14.8497 21.001 15.422 20.7639 15.8439 20.342C16.2659 19.92 16.5029 19.3477 16.5029 18.751V15.751C16.5029 15.5521 16.4239 15.3613 16.2833 15.2206C16.1426 15.08 15.9518 15.001 15.7529 15.001C15.554 15.001 15.3633 15.08 15.2226 15.2206C15.0819 15.3613 15.0029 15.5521 15.0029 15.751V18.751Z" fill="#A2A2A2"/>
<path fill-rule="evenodd" clip-rule="evenodd" d="M23.7839 12.532C23.8538 12.4623 23.9092 12.3795 23.947 12.2884C23.9848 12.1973 24.0043 12.0996 24.0043 12.001C24.0043 11.9023 23.9848 11.8046 23.947 11.7135C23.9092 11.6224 23.8538 11.5396 23.7839 11.47L19.2839 6.96998C19.1431 6.82915 18.9521 6.75003 18.7529 6.75003C18.5538 6.75003 18.3628 6.82915 18.2219 6.96998C18.0811 7.11081 18.002 7.30181 18.002 7.50098C18.002 7.70014 18.0811 7.89115 18.2219 8.03198L21.4424 11.251H8.25293C8.05402 11.251 7.86325 11.33 7.7226 11.4706C7.58195 11.6113 7.50293 11.8021 7.50293 12.001C7.50293 12.1999 7.58195 12.3907 7.7226 12.5313C7.86325 12.672 8.05402 12.751 8.25293 12.751H21.4424L18.2219 15.97C18.0811 16.1108 18.002 16.3018 18.002 16.501C18.002 16.7001 18.0811 16.8911 18.2219 17.032C18.3628 17.1728 18.5538 17.2519 18.7529 17.2519C18.9521 17.2519 19.1431 17.1728 19.2839 17.032L23.7839 12.532Z" fill="#A2A2A2"/>
</g>
<defs>
<clipPath id="clip0_3104_902">
<rect width="24" height="24" fill="white"/>
</clipPath>
</defs>
</svg>
