<svg width="106" height="62" viewBox="0 0 106 62" fill="none" xmlns="http://www.w3.org/2000/svg">
<g clip-path="url(#clip0_3104_867)">
<path d="M75.3999 0C66.0235 0 57.6325 4.2179 52.0186 10.862C54.6642 8.11926 57.8362 5.93859 61.3445 4.4506C64.8528 2.96262 68.6254 2.19791 72.4362 2.20227C88.1134 2.20227 100.827 14.9157 100.827 30.5929C100.827 46.27 88.1134 58.9835 72.4362 58.9835C68.6254 58.9878 64.8528 58.2231 61.3445 56.7351C57.8362 55.2471 54.6642 53.0665 52.0186 50.3237C57.6325 56.9678 66.0235 61.1857 75.3999 61.1857C92.3014 61.1857 106 47.4869 106 30.5929C106 13.6989 92.3014 0 75.3999 0Z" fill="#FF6B00"/>
<path d="M23.919 19.186H25.7928C26.4264 19.186 27.034 18.9343 27.482 18.4863C27.93 18.0383 28.1817 17.4306 28.1817 16.7971C28.1817 16.1635 27.93 15.5559 27.482 15.1078C27.034 14.6598 26.4264 14.4082 25.7928 14.4082H23.9563C23.5965 14.4081 23.2413 14.4901 22.9179 14.6479C22.5945 14.8057 22.3114 15.0352 22.09 15.3189L22.0527 15.3637C20.8433 16.9165 21.9482 19.186 23.919 19.186ZM18.7455 28.3832H33.818C34.1425 28.4014 34.4672 28.3532 34.7724 28.2415C35.0775 28.1298 35.3567 27.9571 35.5928 27.7338C35.8289 27.5105 36.017 27.2415 36.1456 26.943C36.2741 26.6446 36.3404 26.323 36.3404 25.9981C36.3404 25.6731 36.2741 25.3516 36.1456 25.0531C36.017 24.7546 35.8289 24.4856 35.5928 24.2623C35.3567 24.039 35.0775 23.8663 34.7724 23.7546C34.4672 23.643 34.1425 23.5947 33.818 23.6129H18.7455C18.4211 23.5947 18.0964 23.643 17.7912 23.7546C17.486 23.8663 17.2068 24.039 16.9707 24.2623C16.7346 24.4856 16.5465 24.7546 16.418 25.0531C16.2895 25.3516 16.2232 25.6731 16.2232 25.9981C16.2232 26.323 16.2895 26.6446 16.418 26.943C16.5465 27.2415 16.7346 27.5105 16.9707 27.7338C17.2068 27.9571 17.486 28.1298 17.7912 28.2415C18.0964 28.3532 18.4211 28.4014 18.7455 28.3832ZM9.74984 23.6129H2.37411C1.83211 23.613 1.30657 23.7991 0.885338 24.1402C0.464105 24.4812 0.17271 24.9566 0.0598645 25.4867C0.0598645 25.5091 0.0523992 25.524 0.0523992 25.5389C-0.0197629 25.8823 -0.014445 26.2373 0.0679656 26.5783C0.150376 26.9193 0.307805 27.2377 0.528786 27.5101C0.749767 27.7826 1.02874 28.0024 1.34538 28.1534C1.66202 28.3044 2.00836 28.383 2.35918 28.3832H9.74984C10.0743 28.4014 10.399 28.3532 10.7042 28.2415C11.0094 28.1298 11.2886 27.9571 11.5247 27.7338C11.7608 27.5105 11.9489 27.2415 12.0774 26.943C12.2059 26.6446 12.2722 26.323 12.2722 25.9981C12.2722 25.6731 12.2059 25.3516 12.0774 25.0531C11.9489 24.7546 11.7608 24.4856 11.5247 24.2623C11.2886 24.039 11.0094 23.8663 10.7042 23.7546C10.399 23.643 10.0743 23.5947 9.74984 23.6129ZM34.781 19.186H44.2023C44.8358 19.186 45.4435 18.9343 45.8915 18.4863C46.3395 18.0383 46.5912 17.4306 46.5912 16.7971C46.5912 16.1635 46.3395 15.5559 45.8915 15.1078C45.4435 14.6598 44.8358 14.4082 44.2023 14.4082H34.781C34.1475 14.4082 33.5398 14.6598 33.0918 15.1078C32.6438 15.5559 32.3921 16.1635 32.3921 16.7971C32.3921 17.4306 32.6438 18.0383 33.0918 18.4863C33.5398 18.9343 34.1475 19.186 34.781 19.186ZM35.9307 42.0224H33.6015C31.6307 42.0224 30.5258 44.2843 31.7352 45.8371L31.7725 45.8819C31.9939 46.1656 32.277 46.3951 32.6004 46.553C32.9238 46.7108 33.279 46.7928 33.6388 46.7927H35.9307C36.5402 46.7586 37.1135 46.4924 37.533 46.0489C37.9524 45.6053 38.1861 45.018 38.1861 44.4075C38.1861 43.7971 37.9524 43.2098 37.533 42.7662C37.1135 42.3226 36.5402 42.0565 35.9307 42.0224ZM72.5705 5.77078C67.6426 5.76308 62.8251 7.22939 58.7372 9.98122H59.7898C60.9992 9.98122 62.0145 10.9293 62.0518 12.1312C62.0598 12.4274 62.0084 12.7221 61.9005 12.9981C61.7927 13.274 61.6306 13.5255 61.4239 13.7378C61.2172 13.95 60.9701 14.1187 60.6971 14.2339C60.4242 14.349 60.1309 14.4083 59.8346 14.4082H53.1905C52.5569 14.4082 51.9493 14.6598 51.5013 15.1078C51.0533 15.5559 50.8016 16.1635 50.8016 16.7971C50.8016 17.4306 51.0533 18.0383 51.5013 18.4863C51.9493 18.9343 52.5569 19.186 53.1905 19.186H56.1244C57.3338 19.186 58.3565 20.1266 58.3864 21.336C58.3954 21.6324 58.3446 21.9276 58.2372 22.204C58.1297 22.4804 57.9677 22.7323 57.7608 22.9448C57.5539 23.1572 57.3064 23.3259 57.0329 23.4407C56.7595 23.5555 56.4657 23.614 56.1692 23.6129H42.8063C42.1967 23.647 41.6234 23.9132 41.204 24.3567C40.7846 24.8003 40.5508 25.3876 40.5508 25.9981C40.5508 26.6085 40.7846 27.1958 41.204 27.6394C41.6234 28.0829 42.1967 28.3491 42.8063 28.3832H61.9175C63.1268 28.3832 64.1496 29.3313 64.1795 30.5407C64.1884 30.8365 64.1379 31.1311 64.0309 31.407C63.9239 31.6829 63.7626 31.9345 63.5565 32.1468C63.3504 32.3592 63.1037 32.528 62.8312 32.6432C62.5586 32.7584 62.2656 32.8178 61.9697 32.8176H55.2957C54.6862 32.8517 54.1129 33.1179 53.6935 33.5615C53.274 34.005 53.0403 34.5923 53.0403 35.2028C53.0403 35.8133 53.274 36.4006 53.6935 36.8441C54.1129 37.2877 54.6862 37.5538 55.2957 37.588H62.5595C63.7689 37.588 64.7841 38.5361 64.8215 39.7454C64.8294 40.0416 64.778 40.3363 64.6701 40.6123C64.5623 40.8882 64.4002 41.1397 64.1936 41.352C63.9869 41.5642 63.7397 41.7329 63.4668 41.848C63.1938 41.9632 62.9005 42.0225 62.6043 42.0224H44.9189C44.5945 42.0042 44.2697 42.0524 43.9646 42.1641C43.6594 42.2757 43.3802 42.4485 43.1441 42.6718C42.908 42.895 42.7199 43.1641 42.5914 43.4626C42.4628 43.761 42.3965 44.0826 42.3965 44.4075C42.3965 44.7325 42.4628 45.054 42.5914 45.3525C42.7199 45.6509 42.908 45.92 43.1441 46.1433C43.3802 46.3665 43.6594 46.5393 43.9646 46.651C44.2697 46.7626 44.5945 46.8108 44.9189 46.7927H59.5136C60.723 46.7927 61.7383 47.7408 61.7756 48.9502C61.7826 49.2461 61.7304 49.5404 61.6222 49.8158C61.514 50.0913 61.3519 50.3424 61.1454 50.5545C60.9389 50.7665 60.6922 50.9352 60.4197 51.0507C60.1472 51.1662 59.8544 51.2262 59.5584 51.2271H58.7671C62.8491 53.9653 67.6551 55.4235 72.5705 55.4151C86.2768 55.4151 97.3926 44.2993 97.3926 30.593C97.3926 16.8866 86.2768 5.77078 72.5705 5.77078ZM84.3507 49.2114C84.1233 49.3578 83.8682 49.456 83.6013 49.5C83.3344 49.5439 83.0614 49.5326 82.799 49.4669C82.5366 49.4011 82.2905 49.2822 82.0759 49.1176C81.8613 48.953 81.6827 48.7461 81.5512 48.5097L74.3995 35.6096L66.5012 48.7038C66.3605 48.9325 66.1745 49.1301 65.9547 49.2843C65.7349 49.4386 65.4859 49.5463 65.2229 49.6009C64.96 49.6554 64.6887 49.6557 64.4257 49.6016C64.1626 49.5475 63.9134 49.4403 63.6933 49.2864C63.4732 49.1326 63.2869 48.9353 63.1458 48.7069C63.0047 48.4784 62.9117 48.2235 62.8727 47.9579C62.8336 47.6922 62.8492 47.4213 62.9186 47.1619C62.988 46.9025 63.1097 46.66 63.2761 46.4493L73.414 33.8254L71.9732 31.235C71.264 29.9509 69.8755 29.2268 68.4197 29.3015C66.8072 29.391 65.1201 28.4952 63.4926 25.9719C60.9918 22.09 59.5733 15.8415 61.8577 14.3634C64.1421 12.8852 69.2559 16.7597 71.7567 20.6417C73.3842 23.1575 73.5111 25.0686 72.7646 26.4945C72.4302 27.1278 72.2809 27.8425 72.3337 28.5568C72.3865 29.271 72.6393 29.9559 73.0632 30.5332L84.8584 46.3821C85.0192 46.5982 85.134 46.845 85.1957 47.1072C85.2574 47.3694 85.2647 47.6415 85.2171 47.9067C85.1695 48.1718 85.0681 48.4244 84.9191 48.6488C84.7701 48.8732 84.5766 49.0647 84.3507 49.2114ZM87.3294 24.0309C85.6049 26.4945 83.649 30.0032 80.3269 29.9808C78.8637 29.9733 77.4602 30.5332 76.7062 31.7799L75.8701 33.1685L74.937 31.9218L75.6462 31.0409C76.5644 29.8987 76.6017 28.3907 76.0866 27.0245C74.922 23.919 77.5424 20.8656 79.2668 18.4021C80.409 16.7597 82.783 14.0871 83.746 13.9154L77.3333 23.0978C77.2572 23.2103 77.2278 23.348 77.2515 23.4818C77.2752 23.6156 77.3501 23.7349 77.4602 23.8144C77.5721 23.8925 77.7105 23.923 77.8448 23.8992C77.9792 23.8754 78.0986 23.7993 78.1769 23.6875L84.7091 14.326C84.7846 14.2205 84.8928 14.1428 85.017 14.105C85.1412 14.0672 85.2743 14.0714 85.3959 14.117H85.4033C85.4853 14.1488 85.559 14.1988 85.6189 14.2631C85.6788 14.3275 85.7234 14.4046 85.7493 14.4886C85.7751 14.5727 85.7816 14.6615 85.7682 14.7484C85.7549 14.8353 85.722 14.9181 85.6721 14.9904L79.1399 24.3594C79.1017 24.4143 79.0747 24.4762 79.0603 24.5416C79.046 24.6069 79.0447 24.6744 79.0565 24.7403C79.0683 24.8062 79.0929 24.869 79.129 24.9254C79.1651 24.9817 79.212 25.0304 79.2668 25.0686C79.3217 25.1069 79.3836 25.1339 79.449 25.1482C79.5143 25.1625 79.5819 25.1638 79.6477 25.152C79.7136 25.1403 79.7765 25.1156 79.8328 25.0795C79.8891 25.0434 79.9378 24.9966 79.9761 24.9417L86.6127 15.4384C86.7003 15.3122 86.8341 15.2257 86.9851 15.1977C87.1361 15.1698 87.292 15.2026 87.419 15.2891H87.4339C87.4966 15.3323 87.55 15.3876 87.5912 15.4517C87.6323 15.5159 87.6603 15.5875 87.6735 15.6625C87.6867 15.7375 87.6848 15.8144 87.668 15.8887C87.6513 15.963 87.6199 16.0332 87.5757 16.0953L80.9391 25.6061C80.861 25.718 80.8305 25.8563 80.8543 25.9907C80.8781 26.1251 80.9542 26.2445 81.066 26.3228C81.1785 26.399 81.3163 26.4283 81.45 26.4046C81.5838 26.3809 81.7031 26.3061 81.7827 26.1959L88.3148 16.8344C88.3667 16.763 88.4339 16.7042 88.5115 16.6622C88.5891 16.6203 88.6751 16.5963 88.7632 16.592C88.8513 16.5877 88.9393 16.6032 89.0206 16.6374C89.1019 16.6716 89.1745 16.7236 89.233 16.7896H89.2405C89.3235 16.8889 89.3721 17.0124 89.3788 17.1417C89.3855 17.2709 89.3501 17.3989 89.2778 17.5063L82.7382 26.8752C82.6998 26.93 82.6725 26.9919 82.6581 27.0573C82.6436 27.1227 82.6423 27.1903 82.6541 27.2562C82.6658 27.3222 82.6906 27.3851 82.7268 27.4414C82.763 27.4978 82.81 27.5464 82.8651 27.5844C82.977 27.6625 83.1153 27.693 83.2497 27.6692C83.3841 27.6454 83.5035 27.5693 83.5818 27.4575L89.9945 18.2752C90.1662 19.2382 88.4716 22.3886 87.3294 24.0309ZM22.6648 32.8176H14.5351C14.1835 32.8177 13.8364 32.8963 13.5191 33.0477C13.2018 33.1992 12.9223 33.4197 12.7012 33.693C12.4801 33.9664 12.3229 34.2857 12.2411 34.6277C12.1592 34.9696 12.1549 35.3255 12.2283 35.6694C12.2283 35.6843 12.2358 35.6992 12.2358 35.7142C12.3474 36.2449 12.6384 36.721 13.0599 37.0623C13.4814 37.4036 14.0077 37.5893 14.55 37.588H22.6648C23.2743 37.5538 23.8477 37.2877 24.2671 36.8441C24.6865 36.4006 24.9202 35.8133 24.9202 35.2028C24.9202 34.5923 24.6865 34.005 24.2671 33.5615C23.8477 33.1179 23.2743 32.8517 22.6648 32.8176ZM46.3075 37.588C46.6319 37.6061 46.9567 37.5579 47.2618 37.4462C47.567 37.3346 47.8462 37.1618 48.0823 36.9385C48.3184 36.7153 48.5065 36.4462 48.635 36.1477C48.7636 35.8493 48.8299 35.5277 48.8299 35.2028C48.8299 34.8778 48.7636 34.5563 48.635 34.2578C48.5065 33.9594 48.3184 33.6903 48.0823 33.467C47.8462 33.2438 47.567 33.071 47.2618 32.9593C46.9567 32.8477 46.6319 32.7995 46.3075 32.8176H31.6531C31.3286 32.7995 31.0039 32.8477 30.6987 32.9593C30.3935 33.071 30.1144 33.2438 29.8783 33.467C29.6421 33.6903 29.4541 33.9594 29.3255 34.2578C29.197 34.5563 29.1307 34.8778 29.1307 35.2028C29.1307 35.5277 29.197 35.8493 29.3255 36.1477C29.4541 36.4462 29.6421 36.7153 29.8783 36.9385C30.1144 37.1618 30.3935 37.3346 30.6987 37.4462C31.0039 37.5579 31.3286 37.6061 31.6531 37.588H46.3075Z" fill="#FF6B00"/>
</g>
<defs>
<clipPath id="clip0_3104_867">
<rect width="106" height="61.1857" fill="white"/>
</clipPath>
</defs>
</svg>
