<svg width="18" height="18" viewBox="0 0 18 18" fill="none" xmlns="http://www.w3.org/2000/svg">
<path fill-rule="evenodd" clip-rule="evenodd" d="M17.784 0.220341C17.8539 0.290009 17.9093 0.372772 17.9471 0.46389C17.9849 0.555008 18.0044 0.65269 18.0044 0.751341C18.0044 0.849992 17.9849 0.947674 17.9471 1.03879C17.9093 1.12991 17.8539 1.21267 17.784 1.28234L1.28405 17.7823C1.14322 17.9232 0.952213 18.0023 0.75305 18.0023C0.553886 18.0023 0.36288 17.9232 0.22205 17.7823C0.0812196 17.6415 0.00210238 17.4505 0.00210238 17.2513C0.00210238 17.0522 0.0812196 16.8612 0.22205 16.7203L16.722 0.220341C16.7917 0.150496 16.8745 0.0950816 16.9656 0.057272C17.0567 0.0194623 17.1544 0 17.253 0C17.3517 0 17.4494 0.0194623 17.5405 0.057272C17.6316 0.0950816 17.7144 0.150496 17.784 0.220341Z" fill="#525252"/>
<path fill-rule="evenodd" clip-rule="evenodd" d="M0.22205 0.220341C0.152205 0.290009 0.0967906 0.372772 0.0589809 0.46389C0.0211713 0.555008 0.00170898 0.65269 0.00170898 0.751341C0.00170898 0.849992 0.0211713 0.947674 0.0589809 1.03879C0.0967906 1.12991 0.152205 1.21267 0.22205 1.28234L16.722 17.7823C16.8629 17.9232 17.0539 18.0023 17.253 18.0023C17.4522 18.0023 17.6432 17.9232 17.784 17.7823C17.9249 17.6415 18.004 17.4505 18.004 17.2513C18.004 17.0522 17.9249 16.8612 17.784 16.7203L1.28405 0.220341C1.21438 0.150496 1.13162 0.0950816 1.0405 0.057272C0.949383 0.0194623 0.851701 0 0.75305 0C0.654399 0 0.556717 0.0194623 0.465599 0.057272C0.374481 0.0950816 0.291718 0.150496 0.22205 0.220341Z" fill="#525252"/>
</svg>
