<svg width="16" height="16" viewBox="0 0 16 16" fill="none" xmlns="http://www.w3.org/2000/svg">
<g clip-path="url(#clip0_2019_12226)">
<rect width="16" height="16" fill="white" fill-opacity="0.01"/>
<g clip-path="url(#clip1_2019_12226)">
<path d="M-0.000487978 7.99912C-0.000830923 7.11829 0.289575 6.26199 0.825661 5.56308C1.36175 4.86418 2.11353 4.36177 2.96435 4.13383C3.81517 3.90588 4.71744 3.96514 5.53113 4.30241C6.34483 4.63968 7.02444 5.2361 7.46451 5.99912H13.9995C14.0652 5.999 14.1303 6.01183 14.191 6.03689C14.2518 6.06194 14.307 6.09872 14.3535 6.14512L15.8535 7.64512C15.9001 7.69156 15.937 7.74674 15.9622 7.80748C15.9874 7.86823 16.0004 7.93335 16.0004 7.99912C16.0004 8.06488 15.9874 8.13001 15.9622 8.19075C15.937 8.2515 15.9001 8.30667 15.8535 8.35312L14.3535 9.85312C14.3071 9.89968 14.2519 9.93662 14.1911 9.96183C14.1304 9.98704 14.0653 10 13.9995 10C13.9337 10 13.8686 9.98704 13.8079 9.96183C13.7471 9.93662 13.692 9.89968 13.6455 9.85312L12.9995 9.20612L12.3535 9.85312C12.3071 9.89968 12.2519 9.93662 12.1911 9.96183C12.1304 9.98704 12.0653 10 11.9995 10C11.9337 10 11.8686 9.98704 11.8079 9.96183C11.7471 9.93662 11.692 9.89968 11.6455 9.85312L10.9995 9.20612L10.3535 9.85312C10.3071 9.89968 10.2519 9.93662 10.1911 9.96183C10.1304 9.98704 10.0653 10 9.99951 10C9.93374 10 9.86862 9.98704 9.80788 9.96183C9.74713 9.93662 9.69196 9.89968 9.64551 9.85312L8.99951 9.20612L8.35351 9.85312C8.30699 9.89952 8.25178 9.9363 8.19104 9.96135C8.1303 9.9864 8.06522 9.99923 7.99951 9.99912H7.46451C7.02444 10.7621 6.34483 11.3586 5.53113 11.6958C4.71744 12.0331 3.81517 12.0924 2.96435 11.8644C2.11353 11.6365 1.36175 11.1341 0.825661 10.4352C0.289575 9.73625 -0.000830923 8.87994 -0.000487978 7.99912ZM3.99951 4.99912C3.46265 4.99932 2.93568 5.14358 2.47358 5.41686C2.01148 5.69013 1.63117 6.0824 1.37234 6.55275C1.11351 7.02309 0.985632 7.55428 1.00205 8.09088C1.01848 8.62749 1.17859 9.14986 1.4657 9.6035C1.75281 10.0571 2.15639 10.4254 2.63434 10.6699C3.11229 10.9144 3.64709 11.0262 4.18296 10.9936C4.71883 10.9609 5.23612 10.7851 5.68088 10.4844C6.12564 10.1838 6.48156 9.76923 6.71151 9.28412C6.75211 9.19888 6.81601 9.12688 6.89582 9.07644C6.97564 9.026 7.0681 8.9992 7.16251 8.99912H7.79251L8.64551 8.14512C8.69196 8.09855 8.74713 8.06161 8.80788 8.03641C8.86862 8.0112 8.93374 7.99822 8.99951 7.99822C9.06528 7.99822 9.1304 8.0112 9.19114 8.03641C9.25189 8.06161 9.30707 8.09855 9.35351 8.14512L9.99951 8.79212L10.6455 8.14512C10.692 8.09855 10.7471 8.06161 10.8079 8.03641C10.8686 8.0112 10.9337 7.99822 10.9995 7.99822C11.0653 7.99822 11.1304 8.0112 11.1911 8.03641C11.2519 8.06161 11.3071 8.09855 11.3535 8.14512L11.9995 8.79212L12.6455 8.14512C12.692 8.09855 12.7471 8.06161 12.8079 8.03641C12.8686 8.0112 12.9337 7.99822 12.9995 7.99822C13.0653 7.99822 13.1304 8.0112 13.1911 8.03641C13.2519 8.06161 13.3071 8.09855 13.3535 8.14512L13.9995 8.79212L14.7925 7.99912L13.7925 6.99912H7.16251C7.0681 6.99904 6.97564 6.97223 6.89582 6.9218C6.81601 6.87136 6.75211 6.79936 6.71151 6.71412C6.4682 6.20083 6.08417 5.76716 5.60407 5.46356C5.12397 5.15996 4.56755 4.9989 3.99951 4.99912Z" fill="#7C7C7C"/>
<path d="M3.99951 7.99912C3.99951 8.26433 3.89416 8.51869 3.70662 8.70622C3.51908 8.89376 3.26473 8.99912 2.99951 8.99912C2.7343 8.99912 2.47994 8.89376 2.29241 8.70622C2.10487 8.51869 1.99951 8.26433 1.99951 7.99912C1.99951 7.7339 2.10487 7.47955 2.29241 7.29201C2.47994 7.10447 2.7343 6.99912 2.99951 6.99912C3.26473 6.99912 3.51908 7.10447 3.70662 7.29201C3.89416 7.47955 3.99951 7.7339 3.99951 7.99912Z" fill="#7C7C7C"/>
</g>
</g>
<defs>
<clipPath id="clip0_2019_12226">
<rect width="16" height="16" fill="white"/>
</clipPath>
<clipPath id="clip1_2019_12226">
<rect width="16" height="16" fill="white"/>
</clipPath>
</defs>
</svg>
