<svg width="17" height="17" viewBox="0 0 17 17" fill="none" xmlns="http://www.w3.org/2000/svg">
<path fill-rule="evenodd" clip-rule="evenodd" d="M8.55859 0.666992C8.73541 0.666992 8.90498 0.73723 9.03 0.862254C9.15502 0.987279 9.22526 1.15685 9.22526 1.33366V8.00033H15.8919C16.0687 8.00033 16.2383 8.07056 16.3633 8.19559C16.4884 8.32061 16.5586 8.49018 16.5586 8.66699C16.5586 8.8438 16.4884 9.01337 16.3633 9.1384C16.2383 9.26342 16.0687 9.33366 15.8919 9.33366H9.22526V16.0003C9.22526 16.1771 9.15502 16.3467 9.03 16.4717C8.90498 16.5968 8.73541 16.667 8.55859 16.667C8.38178 16.667 8.21221 16.5968 8.08719 16.4717C7.96217 16.3467 7.89193 16.1771 7.89193 16.0003V9.33366H1.22526C1.04845 9.33366 0.87888 9.26342 0.753856 9.1384C0.628832 9.01337 0.558594 8.8438 0.558594 8.66699C0.558594 8.49018 0.628832 8.32061 0.753856 8.19559C0.87888 8.07056 1.04845 8.00033 1.22526 8.00033H7.89193V1.33366C7.89193 1.15685 7.96217 0.987279 8.08719 0.862254C8.21221 0.73723 8.38178 0.666992 8.55859 0.666992V0.666992Z" fill="#525252"/>
</svg>
