<svg width="11" height="10" viewBox="0 0 11 10" fill="none" xmlns="http://www.w3.org/2000/svg">
<g clip-path="url(#clip0_3104_5306)">
<rect width="10" height="10" transform="translate(0.600098)" fill="white" fill-opacity="0.01"/>
<path fill-rule="evenodd" clip-rule="evenodd" d="M9.25843 1.34034C9.28753 1.36937 9.31062 1.40386 9.32638 1.44182C9.34213 1.47979 9.35024 1.52049 9.35024 1.56159C9.35024 1.6027 9.34213 1.6434 9.32638 1.68136C9.31062 1.71933 9.28753 1.75382 9.25843 1.78284L2.38343 8.65784C2.32475 8.71652 2.24516 8.74949 2.16218 8.74949C2.07919 8.74949 1.99961 8.71652 1.94093 8.65784C1.88225 8.59916 1.84929 8.51958 1.84929 8.43659C1.84929 8.35361 1.88225 8.27402 1.94093 8.21534L8.81593 1.34034C8.84496 1.31124 8.87944 1.28815 8.91741 1.2724C8.95537 1.25664 8.99608 1.24854 9.03718 1.24854C9.07828 1.24854 9.11898 1.25664 9.15695 1.2724C9.19492 1.28815 9.2294 1.31124 9.25843 1.34034Z" fill="#6C757D"/>
<path fill-rule="evenodd" clip-rule="evenodd" d="M1.94093 1.34034C1.91183 1.36937 1.88874 1.40386 1.87298 1.44182C1.85723 1.47979 1.84912 1.52049 1.84912 1.56159C1.84912 1.6027 1.85723 1.6434 1.87298 1.68136C1.88874 1.71933 1.91183 1.75382 1.94093 1.78284L8.81593 8.65784C8.87461 8.71652 8.9542 8.74949 9.03718 8.74949C9.12016 8.74949 9.19975 8.71652 9.25843 8.65784C9.31711 8.59916 9.35007 8.51958 9.35007 8.43659C9.35007 8.35361 9.31711 8.27402 9.25843 8.21534L2.38343 1.34034C2.3544 1.31124 2.31992 1.28815 2.28195 1.2724C2.24399 1.25664 2.20328 1.24854 2.16218 1.24854C2.12108 1.24854 2.08037 1.25664 2.04241 1.2724C2.00444 1.28815 1.96996 1.31124 1.94093 1.34034Z" fill="#6C757D"/>
</g>
<defs>
<clipPath id="clip0_3104_5306">
<rect width="10" height="10" fill="white" transform="translate(0.600098)"/>
</clipPath>
</defs>
</svg>
