<svg width="10" height="10" viewBox="0 0 10 10" fill="none" xmlns="http://www.w3.org/2000/svg">
<g clip-path="url(#clip0_1737_10658)">
<rect width="9.6" height="9.6" transform="translate(0.399902 0.200195)" fill="white" fill-opacity="0.01"/>
<g clip-path="url(#clip1_1737_10658)">
<path d="M4.92874 7.16172L1.93123 3.73547C1.57748 3.33234 1.86498 2.69922 2.40186 2.69922H8.39686C8.51701 2.69912 8.63465 2.73365 8.73568 2.79868C8.83671 2.86372 8.91686 2.95649 8.96652 3.0659C9.01618 3.17531 9.03325 3.29672 9.01568 3.41558C8.99812 3.53444 8.94667 3.64572 8.86749 3.73609L5.86999 7.16109C5.81132 7.22822 5.73898 7.28203 5.6578 7.31889C5.57663 7.35576 5.48851 7.37483 5.39936 7.37483C5.31021 7.37483 5.22209 7.35576 5.14092 7.31889C5.05974 7.28203 4.9874 7.22822 4.92874 7.16109V7.16172Z" fill="#464646"/>
</g>
</g>
<defs>
<clipPath id="clip0_1737_10658">
<rect width="9.6" height="9.6" fill="white" transform="translate(0.399902 0.200195)"/>
</clipPath>
<clipPath id="clip1_1737_10658">
<rect width="9.6" height="9.6" fill="white" transform="translate(0.399902 0.200195)"/>
</clipPath>
</defs>
</svg>
