<svg width="21" height="21" viewBox="0 0 21 21" fill="none" xmlns="http://www.w3.org/2000/svg">
<g opacity="0.5">
<rect width="21" height="21" fill="white" fill-opacity="0.01"/>
<g clip-path="url(#clip0_2863_1007)">
<rect width="14" height="14" transform="translate(3.5 3.5)" fill="white" fill-opacity="0.01"/>
<g clip-path="url(#clip1_2863_1007)">
<path d="M3.75619 3.75565C3.92027 3.59162 4.14279 3.49946 4.37481 3.49946C4.60683 3.49946 4.82935 3.59162 4.99344 3.75565L10.4998 9.26203L16.0062 3.75565C16.0869 3.67208 16.1835 3.60542 16.2902 3.55956C16.397 3.51371 16.5118 3.48957 16.628 3.48856C16.7441 3.48755 16.8594 3.50969 16.9669 3.55368C17.0744 3.59768 17.1721 3.66265 17.2543 3.74481C17.3364 3.82696 17.4014 3.92466 17.4454 4.03219C17.4894 4.13973 17.5115 4.25495 17.5105 4.37113C17.5095 4.48731 17.4854 4.60213 17.4395 4.70888C17.3937 4.81563 17.327 4.91219 17.2434 4.9929L11.7371 10.4993L17.2434 16.0057C17.4028 16.1707 17.491 16.3917 17.489 16.6211C17.487 16.8506 17.395 17.07 17.2328 17.2322C17.0705 17.3945 16.8511 17.4865 16.6217 17.4885C16.3922 17.4905 16.1712 17.4023 16.0062 17.2429L10.4998 11.7365L4.99344 17.2429C4.82841 17.4023 4.60738 17.4905 4.37796 17.4885C4.14854 17.4865 3.92908 17.3945 3.76685 17.2322C3.60461 17.07 3.51259 16.8506 3.5106 16.6211C3.5086 16.3917 3.5968 16.1707 3.75619 16.0057L9.26256 10.4993L3.75619 4.9929C3.59215 4.82882 3.5 4.6063 3.5 4.37428C3.5 4.14226 3.59215 3.91974 3.75619 3.75565Z" fill="black"/>
</g>
</g>
</g>
<defs>
<clipPath id="clip0_2863_1007">
<rect width="14" height="14" fill="white" transform="translate(3.5 3.5)"/>
</clipPath>
<clipPath id="clip1_2863_1007">
<rect width="14" height="14" fill="white" transform="translate(3.5 3.5)"/>
</clipPath>
</defs>
</svg>
