<svg width="24" height="24" viewBox="0 0 24 24" fill="none" xmlns="http://www.w3.org/2000/svg">
<path d="M17.6159 15.5171C19.0684 13.5351 19.7189 11.0778 19.4374 8.63682C19.1559 6.19581 17.9631 3.9511 16.0976 2.35179C14.2321 0.752478 11.8316 -0.0834979 9.37619 0.0111119C6.92082 0.105722 4.59171 1.12394 2.85484 2.86206C1.11796 4.60018 0.101409 6.93001 0.00855671 9.38545C-0.084296 11.8409 0.753398 14.2408 2.35405 16.1052C3.95469 17.9695 6.20025 19.1607 8.64146 19.4405C11.0827 19.7203 13.5395 19.068 15.5204 17.6141H15.5189C15.5639 17.6741 15.6119 17.7311 15.6659 17.7866L21.4409 23.5616C21.7222 23.8431 22.1037 24.0013 22.5017 24.0014C22.8996 24.0015 23.2812 23.8436 23.5627 23.5623C23.8441 23.2811 24.0023 22.8995 24.0025 22.5016C24.0026 22.1037 23.8447 21.7221 23.5634 21.4406L17.7884 15.6656C17.7348 15.6113 17.6771 15.5612 17.6159 15.5156V15.5171ZM18.0029 9.7511C18.0029 10.8345 17.7895 11.9073 17.3749 12.9082C16.9603 13.9092 16.3526 14.8186 15.5866 15.5847C14.8205 16.3508 13.911 16.9585 12.9101 17.3731C11.9091 17.7877 10.8363 18.0011 9.75293 18.0011C8.66953 18.0011 7.59673 17.7877 6.5958 17.3731C5.59486 16.9585 4.68539 16.3508 3.9193 15.5847C3.15322 14.8186 2.54553 13.9092 2.13093 12.9082C1.71633 11.9073 1.50293 10.8345 1.50293 9.7511C1.50293 7.56306 2.37213 5.46464 3.9193 3.91747C5.46648 2.37029 7.5649 1.5011 9.75293 1.5011C11.941 1.5011 14.0394 2.37029 15.5866 3.91747C17.1337 5.46464 18.0029 7.56306 18.0029 9.7511Z" fill="#292929"/>
</svg>
