<svg width="16" height="16" viewBox="0 0 16 16" fill="none" xmlns="http://www.w3.org/2000/svg">
<g clip-path="url(#clip0_2019_11490)">
<rect width="16" height="16" fill="white" fill-opacity="0.01"/>
<path d="M7.99951 7.99927C8.79516 7.99927 9.55822 7.6832 10.1208 7.12059C10.6834 6.55798 10.9995 5.79492 10.9995 4.99927C10.9995 4.20362 10.6834 3.44056 10.1208 2.87795C9.55822 2.31534 8.79516 1.99927 7.99951 1.99927C7.20386 1.99927 6.4408 2.31534 5.87819 2.87795C5.31558 3.44056 4.99951 4.20362 4.99951 4.99927C4.99951 5.79492 5.31558 6.55798 5.87819 7.12059C6.4408 7.6832 7.20386 7.99927 7.99951 7.99927ZM9.99951 4.99927C9.99951 5.5297 9.7888 6.03841 9.41372 6.41348C9.03865 6.78855 8.52994 6.99927 7.99951 6.99927C7.46908 6.99927 6.96037 6.78855 6.5853 6.41348C6.21023 6.03841 5.99951 5.5297 5.99951 4.99927C5.99951 4.46883 6.21023 3.96013 6.5853 3.58505C6.96037 3.20998 7.46908 2.99927 7.99951 2.99927C8.52994 2.99927 9.03865 3.20998 9.41372 3.58505C9.7888 3.96013 9.99951 4.46883 9.99951 4.99927ZM13.9995 12.9993C13.9995 13.9993 12.9995 13.9993 12.9995 13.9993H2.99951C2.99951 13.9993 1.99951 13.9993 1.99951 12.9993C1.99951 11.9993 2.99951 8.99927 7.99951 8.99927C12.9995 8.99927 13.9995 11.9993 13.9995 12.9993ZM12.9995 12.9953C12.9985 12.7493 12.8455 12.0093 12.1675 11.3313C11.5155 10.6793 10.2885 9.99927 7.99951 9.99927C5.70951 9.99927 4.48351 10.6793 3.83151 11.3313C3.15351 12.0093 3.00151 12.7493 2.99951 12.9953H12.9995Z" fill="#7C7C7C"/>
</g>
<defs>
<clipPath id="clip0_2019_11490">
<rect width="16" height="16" fill="white"/>
</clipPath>
</defs>
</svg>
